<svg>
    <symbol id="icon-close"  viewBox="0 0 43 43"  xmlns="http://www.w3.org/2000/svg">
        <path d="M31.8193 11.033L10.6061 32.2462" stroke-width="2"/>
        <path d="M31.8193 32.2462L10.6061 11.033" stroke-width="2"/>
    </symbol>

    <symbol id="icon-logout"  viewBox="0 0 128 128"  xmlns="http://www.w3.org/2000/svg">
        <path fill-rule="evenodd" clip-rule="evenodd" d="M59.2639 4.34666C55.5869 4.34666 51.9459 5.07091 48.5488 6.47804C45.1517 7.88517 42.065 9.94763 39.4649 12.5477C36.8649 15.1477 34.8024 18.2344 33.3953 21.6315C31.9882 25.0286 31.2639 28.6697 31.2639 32.3467C31.2639 36.0237 31.9882 39.6647 33.3953 43.0618C34.8024 46.4589 36.8649 49.5456 39.4649 52.1457C42.065 54.7457 45.1517 56.8082 48.5488 58.2153C51.9459 59.6224 55.5869 60.3467 59.2639 60.3467C66.69 60.3467 73.8119 57.3967 79.0629 52.1457C84.3139 46.8946 87.2639 39.7727 87.2639 32.3467C87.2639 24.9206 84.3139 17.7987 79.0629 12.5477C73.8119 7.29666 66.69 4.34666 59.2639 4.34666ZM104.811 64.48C102.219 61.5467 98.4106 59.68 94.1813 59.68H83.9999C82.1379 59.68 80.294 60.0469 78.5738 60.7596C76.8535 61.4723 75.2905 62.517 73.9741 63.8339C72.6576 65.1509 71.6136 66.7143 70.9015 68.4348C70.1894 70.1553 69.8232 71.9993 69.8239 73.8613V109.477C69.8239 113.237 71.3175 116.843 73.976 119.501C76.6345 122.16 80.2402 123.653 83.9999 123.653H94.1759C98.4106 123.653 102.213 121.787 104.805 118.853C105.465 118.053 105.788 117.027 105.706 115.993C105.624 114.959 105.143 113.997 104.365 113.31C103.588 112.624 102.573 112.266 101.537 112.313C100.501 112.36 99.523 112.808 98.8106 113.563C98.2312 114.222 97.5174 114.75 96.717 115.111C95.9167 115.471 95.0484 115.656 94.1706 115.653H83.9999C80.5866 115.653 77.8239 112.885 77.8239 109.477V73.8613C77.8239 70.448 80.5866 67.68 83.9999 67.68H94.1759C96.0213 67.68 97.6693 68.4853 98.8106 69.776C99.5181 70.5515 100.502 71.0178 101.55 71.0743C102.599 71.1308 103.627 70.7729 104.414 70.0778C105.201 69.3828 105.683 68.4063 105.756 67.359C105.829 66.3118 105.488 65.2778 104.805 64.48H104.811Z" fill="white"/>
        <path fill-rule="evenodd" clip-rule="evenodd" d="M119.984 88.8373C120.733 89.5873 121.154 90.604 121.154 91.664C121.154 92.724 120.733 93.7406 119.984 94.4907L109.317 105.157C108.563 105.886 107.553 106.29 106.504 106.281C105.455 106.273 104.452 105.853 103.71 105.111C102.968 104.37 102.547 103.367 102.537 102.318C102.528 101.269 102.93 100.259 103.659 99.504L114.325 88.8373C115.075 88.0883 116.092 87.6675 117.152 87.6675C118.212 87.6675 119.234 88.0883 119.984 88.8373Z" fill="white"/>
        <path fill-rule="evenodd" clip-rule="evenodd" d="M119.984 94.496C120.733 93.746 121.154 92.7293 121.154 91.6693C121.154 90.6093 120.733 89.5927 119.984 88.8427L109.317 78.176C108.563 77.447 107.553 77.0433 106.504 77.052C105.455 77.0606 104.452 77.4808 103.71 78.2221C102.968 78.9633 102.547 79.9664 102.537 81.0152C102.528 82.064 102.93 83.0746 103.659 83.8293L114.325 94.496C115.075 95.2451 116.092 95.6658 117.152 95.6658C118.212 95.6658 119.234 95.2451 119.984 94.496Z" fill="white"/>
        <path fill-rule="evenodd" clip-rule="evenodd" d="M83.8186 91.6693C83.8186 90.6085 84.24 89.5911 84.9902 88.8409C85.7403 88.0908 86.7577 87.6693 87.8186 87.6693H114.485C115.546 87.6693 116.564 88.0908 117.314 88.8409C118.064 89.5911 118.485 90.6085 118.485 91.6693C118.485 92.7302 118.064 93.7476 117.314 94.4978C116.564 95.2479 115.546 95.6693 114.485 95.6693H87.8186C86.7577 95.6693 85.7403 95.2479 84.9902 94.4978C84.24 93.7476 83.8186 92.7302 83.8186 91.6693Z" fill="white"/>
        <path d="M61.9093 71.9467C61.856 72.5813 61.8293 73.216 61.8293 73.8613V109.477C61.8293 113.456 62.8746 117.184 64.7093 120.411H16.1226C13.6473 120.411 11.2733 119.427 9.52298 117.677C7.77264 115.927 6.78931 113.553 6.78931 111.077V91.4987C6.78931 88.2293 8.59197 85.2267 11.4826 83.6907C26.9823 75.4529 44.3649 71.4064 61.9093 71.952V71.9467Z" fill="white"/>
    </symbol>

</svg>